<?xml version="1.0" standalone="no"?>
<!DOCTYPE svg PUBLIC "-//W3C//DTD SVG 20010904//EN"
 "http://www.w3.org/TR/2001/REC-SVG-20010904/DTD/svg10.dtd">
<svg version="1.0" xmlns="http://www.w3.org/2000/svg"
 width="300.000000pt" height="336.000000pt" viewBox="0 0 300.000000 336.000000"
 preserveAspectRatio="xMidYMid meet">
<metadata>
Created by potrace 1.10, written by Peter Selinger 2001-2011
</metadata>
<g transform="translate(0.000000,336.000000) scale(0.100000,-0.100000)"
fill="#000000" stroke="none">
<path d="M1478 3342 c-10 -2 -18 -8 -18 -13 0 -5 -5 -9 -11 -9 -6 0 -23 -9
-38 -19 -14 -11 -49 -32 -76 -47 -28 -15 -78 -43 -113 -63 -35 -20 -76 -43
-92 -52 -31 -17 -28 -28 14 -43 28 -10 210 -118 217 -128 3 -6 10 -9 15 -8 5
1 32 -13 61 -30 l52 -32 153 86 c84 48 160 91 168 97 8 5 27 15 43 22 15 6 27
14 27 18 0 4 -24 19 -52 33 -48 24 -94 50 -197 111 -116 69 -138 80 -153 77z
m134 -95 c151 -85 208 -120 208 -129 0 -15 -305 -188 -331 -188 -15 0 -269
143 -301 170 -20 17 -21 20 -8 33 8 8 40 28 70 45 30 16 93 53 140 80 47 28
91 51 97 51 7 1 64 -28 125 -62z"/>
<path d="M1775 3029 c-60 -36 -135 -78 -165 -94 -30 -16 -66 -37 -79 -47 -32
-24 -43 -23 -98 10 -43 26 -307 179 -325 189 -5 2 -8 -26 -8 -62 0 -42 4 -64
10 -60 6 3 10 20 10 36 0 16 6 32 14 35 7 3 53 -18 102 -47 49 -28 125 -70
169 -93 44 -23 83 -45 87 -50 4 -6 13 -4 22 3 22 18 327 191 337 191 5 0 9
-13 9 -30 0 -16 4 -30 10 -30 13 0 22 40 18 81 l-3 34 -110 -66z"/>
<path d="M1986 3045 c-8 -8 -18 -15 -23 -15 -4 0 -21 -11 -38 -25 -37 -30 -16
-33 35 -4 l37 21 44 -22 c62 -32 229 -129 262 -152 36 -26 32 -29 -88 -99
-218 -126 -207 -122 -275 -83 -25 14 -67 38 -95 54 -27 15 -82 46 -122 68 -40
23 -77 42 -82 42 -5 0 -11 6 -14 13 -3 9 -8 9 -21 -2 -20 -17 -18 -63 4 -66 8
-2 91 -48 184 -104 93 -55 176 -101 185 -101 25 1 -12 25 -204 135 -96 55
-175 106 -175 112 0 15 22 17 35 4 13 -12 294 -176 338 -197 l35 -17 175 102
c97 55 180 101 186 101 5 0 12 4 15 9 6 9 -27 32 -114 79 -25 13 -52 30 -61
38 -8 8 -20 14 -25 14 -5 0 -27 12 -49 27 -22 15 -46 28 -53 29 -7 1 -28 14
-47 28 -30 23 -35 24 -49 11z"/>
<path d="M953 3021 c-11 -11 -45 -32 -74 -48 -30 -16 -74 -42 -99 -58 -25 -15
-51 -28 -57 -28 -7 0 -13 -4 -13 -8 0 -4 -24 -19 -54 -34 -69 -33 -70 -36 -43
-50 34 -18 110 -61 241 -137 65 -37 122 -68 126 -68 4 0 36 16 69 35 144 83
177 102 201 117 14 8 47 27 73 42 27 15 46 30 44 33 -5 4 -93 -40 -172 -86
-16 -10 -57 -33 -90 -51 -33 -18 -69 -39 -80 -46 -32 -23 -64 -16 -139 27 -39
23 -91 53 -116 67 -108 60 -123 73 -109 87 8 7 82 52 165 100 l152 87 31 -16
c88 -46 115 -36 31 11 -27 15 -50 31 -50 36 0 13 -16 8 -37 -12z"/>
<path d="M2373 2790 c-13 -10 -99 -62 -193 -115 -93 -53 -173 -101 -176 -107
-11 -18 5 -21 30 -5 68 45 310 177 323 177 7 0 13 -11 13 -25 0 -48 17 -24 23
32 3 32 5 58 4 59 -1 1 -12 -6 -24 -16z"/>
<path d="M1379 2792 c-4 -8 -100 -69 -199 -124 -189 -106 -210 -121 -197 -134
3 -3 25 6 49 21 98 61 285 168 309 177 24 8 56 54 45 65 -2 2 -6 0 -7 -5z"/>
<path d="M580 2726 c0 -30 4 -57 9 -60 10 -7 21 17 21 45 0 10 5 19 11 19 7 0
83 -41 170 -91 88 -50 164 -89 171 -87 6 2 -26 26 -73 53 -46 27 -91 54 -100
60 -9 5 -43 24 -75 42 -32 18 -72 41 -89 52 -16 12 -33 21 -37 21 -5 0 -8 -24
-8 -54z"/>
<path d="M2510 2764 c0 -5 -23 -22 -50 -37 -28 -16 -50 -32 -50 -38 0 -13 5
-12 47 11 21 11 46 20 57 20 10 0 71 -30 135 -66 64 -37 133 -76 153 -88 21
-12 38 -26 38 -32 0 -6 -34 -30 -75 -55 -165 -96 -240 -139 -250 -139 -6 0
-85 43 -174 95 -90 52 -170 95 -177 95 -7 0 -17 7 -22 15 -7 14 -10 13 -26 -4
-20 -22 -18 -56 4 -56 8 0 40 -16 70 -36 103 -67 290 -171 302 -167 6 2 -72
52 -173 111 -207 120 -215 125 -201 139 7 7 20 4 39 -9 15 -11 100 -62 188
-113 150 -87 190 -103 204 -82 3 5 31 22 61 38 30 16 57 32 60 35 3 3 56 34
118 68 61 35 112 66 112 70 0 3 -12 12 -27 18 -16 7 -50 26 -78 42 -27 16 -75
44 -105 61 -30 17 -75 42 -99 55 -25 14 -53 33 -63 42 -10 9 -18 12 -18 7z"/>
<path d="M460 2723 c0 -9 -12 -16 -95 -60 -16 -8 -53 -31 -82 -49 -28 -19 -54
-34 -58 -34 -3 0 -26 -13 -50 -30 -24 -16 -50 -30 -57 -30 -8 0 -19 -5 -26
-12 -9 -9 11 -24 86 -67 53 -30 99 -58 100 -63 2 -4 9 -8 16 -8 6 0 35 -15 64
-34 28 -19 52 -33 52 -30 0 3 13 -4 29 -16 l30 -21 53 34 c29 18 115 69 191
113 76 43 133 80 127 82 -6 2 -79 -36 -163 -84 -223 -128 -205 -120 -241 -100
-17 10 -53 31 -81 46 -110 61 -208 126 -207 135 1 10 121 85 252 158 l66 36
49 -24 c54 -27 65 -29 65 -17 0 5 -19 19 -42 32 -24 12 -51 30 -60 38 -10 8
-18 11 -18 5z"/>
<path d="M2854 2478 c-27 -17 -62 -39 -79 -47 -121 -64 -262 -156 -258 -168 5
-12 8 -12 22 0 9 8 36 26 61 40 25 13 92 52 150 86 58 34 110 61 117 61 10 0
13 -40 13 -175 l0 -174 -54 -40 c-85 -63 -88 -85 -4 -32 25 16 55 32 67 36 21
6 21 10 21 226 0 120 -1 219 -3 219 -2 0 -25 -14 -53 -32z"/>
<path d="M870 2482 c0 -6 -26 -25 -57 -43 -32 -18 -122 -70 -201 -116 -160
-93 -139 -91 -242 -24 -30 19 -57 35 -60 36 -3 0 -55 29 -115 65 -61 36 -112
66 -115 68 -3 1 -4 -96 -3 -215 l2 -217 61 -34 c33 -19 58 -38 55 -43 -3 -4
-33 -23 -66 -40 l-60 -32 34 -12 c19 -6 47 -21 63 -32 16 -11 91 -54 166 -97
l137 -77 68 39 c37 22 100 58 140 81 40 22 75 41 78 41 3 0 24 14 47 30 22 17
36 30 30 30 -13 0 -25 -6 -209 -113 -72 -43 -142 -77 -154 -77 -25 0 -296 153
-316 178 -10 13 -6 21 24 46 45 40 40 60 -25 101 l-47 30 -3 170 c-1 93 0 175
2 182 6 15 35 5 96 -33 127 -77 230 -134 244 -134 9 0 19 -7 23 -15 5 -14 8
-14 22 -2 18 15 302 179 342 197 26 12 55 57 44 68 -3 3 -5 0 -5 -6z"/>
<path d="M1551 2348 l-54 -31 -43 22 c-63 34 -75 21 -15 -16 l51 -32 62 36
c34 20 68 36 75 36 6 0 10 4 7 9 -9 14 -27 9 -83 -24z"/>
<path d="M1568 2304 l-75 -44 -63 35 c-34 19 -64 35 -68 35 -14 0 31 -37 65
-54 21 -10 46 -22 56 -27 13 -7 36 1 90 32 81 46 92 54 80 62 -5 3 -43 -14
-85 -39z"/>
<path d="M1597 2213 c-5 -7 -3 -21 2 -30 6 -10 11 -14 11 -9 0 5 8 2 18 -7 46
-41 390 -229 397 -217 3 5 36 25 73 46 81 45 75 40 68 53 -4 6 -27 -2 -59 -21
-105 -63 -103 -62 -145 -37 -20 12 -50 30 -67 39 -134 78 -168 97 -222 128
-34 19 -64 42 -65 51 -3 12 -5 13 -11 4z"/>
<path d="M1640 2211 c0 -6 6 -11 13 -11 7 0 29 -11 49 -25 20 -14 56 -35 80
-48 24 -13 83 -47 132 -75 l88 -52 47 26 c25 14 51 30 56 34 6 4 19 10 30 13
18 4 18 5 -3 6 -12 0 -45 -10 -72 -24 -27 -14 -54 -25 -60 -25 -10 0 -54 24
-232 128 -96 55 -128 69 -128 53z"/>
<path d="M1235 2149 c-44 -27 -87 -52 -95 -56 -8 -4 -44 -24 -79 -45 -75 -44
-88 -45 -133 -18 -18 11 -40 20 -48 20 -8 0 11 -16 43 -36 l57 -36 85 51 c46
28 87 51 90 51 4 0 26 14 50 30 24 17 46 30 49 30 3 0 27 13 54 30 31 20 40
29 27 29 -11 0 -56 -23 -100 -50z"/>
<path d="M1215 2084 c-82 -48 -169 -98 -193 -111 l-42 -25 -66 37 c-37 21 -64
31 -62 24 2 -7 31 -27 64 -44 32 -16 61 -33 64 -36 3 -3 59 26 125 64 134 78
197 114 237 134 24 13 46 43 30 43 -4 0 -74 -39 -157 -86z"/>
<path d="M2790 1982 c0 -6 12 -20 28 -31 l27 -21 -27 -23 c-15 -12 -88 -57
-162 -100 l-135 -78 -48 25 c-27 13 -107 59 -178 100 -125 73 -177 97 -125 56
14 -11 50 -33 80 -50 70 -38 114 -64 120 -70 3 -3 21 -14 40 -24 19 -10 52
-28 72 -39 l37 -20 83 50 c46 27 131 76 190 109 59 32 108 62 108 66 0 4 -9
10 -20 13 -11 3 -26 12 -33 19 -18 18 -57 30 -57 18z"/>
<path d="M2276 1940 c-28 -18 -28 -20 -10 -26 10 -5 71 -38 135 -76 l116 -67
132 76 131 76 -31 19 c-25 15 -34 17 -43 7 -6 -7 -7 -10 -1 -6 6 3 17 1 25 -4
21 -14 -27 -53 -133 -107 l-84 -44 -57 34 c-32 18 -77 44 -102 58 -62 36 -71
47 -44 55 15 5 33 -1 58 -18 46 -30 122 -69 122 -63 0 7 -169 106 -178 105 -4
0 -20 -9 -36 -19z"/>
<path d="M2107 1918 c-3 -10 6 -24 26 -39 31 -24 225 -139 233 -139 2 0 27
-15 56 -32 29 -18 59 -33 67 -35 7 -1 18 -6 23 -11 6 -6 66 23 166 80 87 50
167 94 180 99 24 9 23 14 23 -191 0 -27 0 -74 0 -104 l-1 -54 -57 -39 c-73
-50 -80 -71 -11 -35 109 58 98 27 98 276 0 208 -1 218 -17 204 -17 -15 -241
-148 -248 -148 -2 0 -30 -16 -62 -35 -32 -19 -64 -35 -71 -35 -7 0 -38 16 -68
35 -30 19 -56 35 -58 35 -5 0 -148 84 -186 108 -14 9 -27 17 -30 18 -23 5 -43
20 -49 37 -6 16 -9 17 -14 5z"/>
<path d="M226 1904 l-28 -16 28 -15 c64 -32 210 -117 224 -129 13 -10 36 0
140 62 69 40 130 76 135 78 6 3 3 9 -5 15 -20 14 -30 14 -30 -2 0 -16 -41 -48
-87 -68 -18 -7 -33 -16 -33 -20 0 -11 -90 -50 -107 -47 -32 5 -213 113 -213
126 0 22 29 13 111 -34 44 -26 82 -44 84 -42 5 5 -169 108 -182 108 -4 -1 -21
-8 -37 -16z"/>
<path d="M1120 1906 c0 -2 28 -21 63 -40 34 -20 69 -41 77 -46 8 -5 64 -37
123 -70 l108 -61 57 32 c31 18 71 40 87 49 65 35 225 131 225 136 0 11 -46
-10 -119 -53 -77 -45 -165 -95 -211 -120 -44 -23 -31 -28 -270 110 -102 59
-140 76 -140 63z"/>
<path d="M1855 1866 c-11 -7 -43 -27 -71 -42 -28 -16 -104 -59 -168 -96 -65
-38 -122 -68 -127 -68 -4 0 -46 22 -91 49 -195 114 -281 162 -285 157 -9 -9
271 -179 337 -206 19 -7 39 -17 43 -21 5 -4 23 2 40 13 55 35 210 123 277 159
63 33 80 46 80 62 0 11 -13 9 -35 -7z"/>
<path d="M77 1644 l2 -216 66 -34 c79 -41 86 -27 10 21 l-55 36 0 179 c0 98 4
181 8 184 7 4 43 -16 232 -127 19 -11 58 -33 85 -47 l51 -27 94 55 c52 30 132
77 178 103 46 27 89 49 97 49 7 0 15 9 18 20 5 21 -11 27 -29 11 -12 -12 -284
-171 -293 -171 -3 0 -17 -9 -31 -20 -35 -27 -45 -25 -119 19 -185 109 -309
181 -312 181 -2 0 -3 -97 -2 -216z"/>
<path d="M1600 1610 c-12 -22 -5 -44 11 -35 5 4 9 2 9 -3 0 -4 37 -30 83 -56
45 -26 89 -51 97 -56 8 -5 40 -24 70 -42 87 -51 103 -59 114 -55 10 3 -22 23
-281 174 -86 50 -100 61 -92 76 6 9 8 17 5 17 -3 0 -10 -9 -16 -20z"/>
<path d="M2320 1596 c-36 -19 -121 -66 -189 -104 -76 -44 -129 -68 -140 -65
-9 4 -85 46 -169 95 -84 49 -159 88 -167 86 -13 -3 312 -199 342 -206 11 -3
207 106 378 210 51 30 14 20 -55 -16z"/>
<path d="M575 1604 c-9 -9 -14 -23 -11 -31 3 -8 6 -17 6 -19 0 -2 4 -4 9 -4 6
0 30 -13 54 -30 25 -16 47 -30 49 -30 3 0 63 -34 133 -75 71 -41 136 -75 144
-75 19 0 7 12 -39 38 -94 52 -186 106 -190 111 -3 3 -36 22 -73 41 -76 39 -89
54 -61 75 11 8 14 15 7 15 -6 0 -19 -7 -28 -16z"/>
<path d="M610 1596 c0 -2 19 -16 43 -31 23 -16 42 -28 42 -26 0 1 65 -36 144
-82 144 -84 145 -85 170 -67 14 9 60 37 101 60 41 24 92 54 112 67 21 12 40
23 44 23 3 0 19 9 35 21 17 12 42 25 57 29 l27 8 -27 1 c-16 1 -92 -37 -201
-100 l-175 -100 -49 25 c-51 28 -65 36 -183 106 -89 53 -140 77 -140 66z"/>
<path d="M2206 1480 c-198 -114 -213 -124 -199 -133 5 -3 29 7 54 22 82 52
316 181 327 181 7 0 12 9 12 20 0 11 -1 20 -2 20 -2 -1 -88 -50 -192 -110z"/>
<path d="M1280 1517 c-128 -76 -200 -117 -252 -145 -27 -14 -48 -31 -48 -38 0
-19 2 -19 75 26 36 22 67 40 70 40 3 0 28 15 57 33 29 19 82 49 118 68 63 32
80 45 80 62 0 12 -12 7 -100 -46z"/>
<path d="M2787 1375 c3 -8 8 -15 12 -15 3 0 17 -9 30 -19 l24 -19 -42 -26
c-23 -15 -57 -35 -74 -45 -18 -10 -61 -36 -97 -56 -125 -73 -117 -70 -167 -46
-67 32 -75 25 -13 -14 l55 -34 30 19 c16 10 75 43 130 74 55 31 107 61 115 66
8 6 36 21 63 35 26 14 47 27 47 29 0 7 -62 44 -92 55 -22 8 -26 8 -21 -4z"/>
<path d="M155 1329 c-16 -11 -40 -24 -53 -30 -21 -8 -23 -29 -2 -29 8 0 222
-121 338 -191 26 -16 29 -15 82 14 30 16 62 37 70 45 17 17 17 17 -63 -22 -66
-33 -62 -34 -181 37 -38 23 -93 56 -121 72 -100 59 -95 50 -50 89 44 39 29 49
-20 15z"/>
<path d="M2728 1343 c27 -11 8 -32 -70 -78 -155 -90 -131 -84 -198 -49 -73 38
-70 27 4 -16 l54 -30 132 76 c127 74 131 78 109 90 -13 7 -28 13 -34 13 -5 0
-4 -3 3 -6z"/>
<path d="M1090 1316 c-11 -14 -11 -66 1 -56 3 3 21 -7 40 -21 33 -25 269 -159
338 -193 l34 -16 101 59 c200 117 245 141 259 141 7 0 19 11 25 25 16 34 15
53 0 34 -7 -9 -67 -47 -133 -86 -66 -39 -153 -89 -193 -113 -51 -30 -76 -39
-85 -33 -6 6 -32 22 -57 35 -25 14 -74 42 -110 63 -36 21 -100 58 -142 82 -72
41 -100 73 -63 73 8 0 15 5 15 10 0 15 -16 12 -30 -4z"/>
<path d="M225 1299 c-16 -10 -25 -19 -19 -19 5 0 67 -33 138 -74 l127 -75 35
24 c20 13 44 27 55 30 15 5 19 16 19 46 0 26 -4 38 -11 33 -6 -3 -8 -16 -5
-29 6 -25 -10 -43 -61 -69 -37 -19 -40 -18 -158 52 -112 66 -109 64 -95 72 15
9 69 -12 119 -46 35 -24 65 -33 45 -15 -10 10 -151 92 -156 90 -2 0 -16 -9
-33 -20z"/>
<path d="M1684 1215 c-98 -57 -185 -105 -191 -105 -7 0 -86 43 -175 95 -145
84 -188 105 -188 91 0 -2 30 -22 66 -43 37 -21 83 -47 103 -59 20 -12 72 -41
115 -66 l79 -45 146 85 c80 46 170 98 199 114 28 17 52 32 52 34 0 15 -47 -8
-206 -101z"/>
<path d="M2402 1289 c2 -6 7 -10 11 -10 4 1 20 -5 37 -14 46 -24 49 -17 5 10
-43 27 -59 31 -53 14z"/>
<path d="M2840 1258 c-36 -22 -78 -47 -95 -54 -16 -8 -75 -42 -130 -75 -73
-44 -104 -58 -115 -52 -71 44 -110 63 -110 56 0 -11 101 -73 118 -73 7 0 12
-5 12 -12 0 -7 6 -5 18 4 26 24 315 188 329 188 10 0 13 -35 15 -147 0 -82 0
-159 -1 -173 -2 -32 -21 -48 -140 -116 -53 -31 -118 -69 -145 -85 -27 -17 -55
-28 -62 -25 -7 3 -15 -2 -18 -9 -4 -11 -15 -9 -51 12 -25 14 -49 23 -52 19 -4
-3 -4 -8 -2 -9 19 -16 99 -67 104 -67 4 0 30 16 59 35 29 19 57 35 62 35 5 0
33 16 61 35 29 19 56 35 61 35 4 0 24 12 43 26 19 14 51 32 72 41 l37 15 0
219 c0 120 -1 219 -2 218 -2 0 -32 -18 -68 -41z"/>
<path d="M75 1043 l0 -218 38 -20 c111 -60 193 -108 198 -117 3 -5 10 -9 14
-7 8 3 117 -61 127 -75 9 -13 137 64 131 80 -4 10 -15 7 -44 -11 -21 -14 -45
-25 -53 -25 -8 0 -16 -6 -19 -12 -3 -10 -7 -10 -20 0 -15 13 -127 82 -132 82
-12 0 -184 106 -197 122 -16 17 -18 43 -18 189 0 92 4 170 8 173 7 4 66 -27
280 -146 29 -17 55 -28 58 -25 5 5 -68 52 -141 92 -75 41 -118 67 -172 101
-29 19 -54 34 -56 34 -1 0 -2 -98 -2 -217z"/>
<path d="M605 1111 c-6 -5 -31 -20 -56 -34 -77 -42 -87 -50 -82 -64 5 -12 8
-11 22 1 9 8 46 32 84 53 37 22 64 42 60 46 -9 9 -17 9 -28 -2z"/>
<path d="M2209 1031 c24 -16 5 -38 -74 -82 -42 -24 -86 -50 -98 -56 -27 -15
-57 -17 -57 -3 0 6 -7 10 -16 10 -8 0 -22 6 -29 13 -37 32 -45 37 -45 27 0 -9
101 -80 114 -80 3 0 29 15 58 34 48 30 119 70 187 106 l24 13 -24 13 c-28 15
-64 20 -40 5z"/>
<path d="M746 1013 l-29 -15 24 -19 c13 -10 27 -19 31 -19 3 0 52 -27 108 -60
l101 -60 56 32 c50 30 56 36 59 72 3 30 1 37 -8 28 -7 -7 -12 -24 -13 -39 0
-21 -9 -31 -46 -51 l-47 -24 -68 37 c-114 61 -154 86 -154 96 0 18 40 9 90
-21 69 -41 110 -61 110 -56 0 3 -33 24 -72 47 -40 23 -82 48 -93 55 -16 10
-25 10 -49 -3z"/>
<path d="M580 1000 c-24 -24 -25 -33 -5 -50 8 -7 15 -9 15 -5 0 4 21 -9 48
-28 26 -19 70 -47 97 -62 28 -16 73 -41 100 -57 28 -15 70 -38 95 -51 25 -12
47 -25 50 -29 3 -3 37 14 75 37 39 24 76 44 83 44 12 1 16 13 6 23 -3 3 -40
-14 -83 -38 l-78 -44 -44 24 c-24 13 -75 42 -114 65 -38 22 -109 62 -157 88
-59 32 -88 54 -88 66 0 9 7 17 15 17 8 0 15 5 15 10 0 15 -8 12 -30 -10z"/>
<path d="M2305 987 c-100 -65 -283 -167 -299 -167 -9 0 -35 9 -57 21 -59 30
-59 17 0 -20 55 -34 62 -33 127 11 23 15 45 28 48 28 4 0 25 12 47 26 23 14
62 37 87 51 97 54 138 83 117 82 -11 0 -42 -15 -70 -32z"/>
<path d="M640 968 c19 -13 37 -26 38 -30 2 -5 10 -8 19 -8 8 0 34 -13 58 -30
24 -16 47 -30 52 -30 5 0 25 -11 45 -25 20 -14 58 -36 83 -50 41 -21 49 -23
68 -11 12 8 44 26 72 40 30 16 42 26 30 26 -11 0 -40 -11 -64 -25 -23 -14 -52
-25 -62 -25 -18 0 -57 17 -69 30 -13 15 -278 160 -290 160 -8 0 1 -10 20 -22z"/>
<path d="M1890 974 c0 -8 3 -13 8 -11 4 3 24 -3 45 -13 48 -24 47 -17 -3 15
-46 29 -50 30 -50 9z"/>
<path d="M2325 945 c-44 -25 -87 -50 -95 -55 -8 -5 -62 -37 -120 -70 l-105
-61 -70 37 c-53 28 -66 32 -52 16 24 -26 135 -84 142 -73 2 5 67 44 142 86 76
43 149 86 163 95 14 10 33 19 44 21 10 2 22 14 27 27 5 12 7 22 6 22 -1 0 -38
-20 -82 -45z"/>
<path d="M1103 718 c-27 -13 -35 -75 -9 -65 8 3 20 0 26 -8 6 -8 48 -35 93
-61 45 -26 111 -64 147 -85 36 -21 79 -44 95 -51 17 -7 33 -17 37 -22 4 -6 11
-6 20 1 26 21 343 203 354 203 15 0 38 55 29 69 -14 23 -46 9 -200 -84 -106
-65 -184 -105 -204 -105 -12 0 -95 43 -186 96 -90 53 -170 94 -176 92 -7 -2
26 -26 72 -53 46 -27 87 -54 91 -60 4 -5 8 -6 8 -1 0 4 12 0 28 -10 15 -10 57
-35 95 -56 l67 -38 38 19 c20 11 107 60 191 110 85 50 159 91 163 91 19 0 6
-28 -19 -41 -16 -7 -44 -23 -63 -35 -118 -72 -278 -163 -296 -168 -16 -5 -68
20 -205 100 -101 59 -190 113 -198 120 -12 11 -11 16 10 33 27 23 25 25 -8 9z"/>
<path d="M1253 718 c-13 -6 -23 -14 -23 -17 1 -7 245 -144 264 -149 7 -2 18 4
25 12 10 12 9 14 -9 9 -24 -6 -38 0 -157 70 -46 26 -83 52 -83 57 0 16 32 12
65 -8 91 -54 125 -72 125 -65 0 8 -14 16 -117 74 -57 32 -58 32 -90 17z"/>
<path d="M1698 723 c24 -10 12 -39 -25 -58 -40 -20 -145 -90 -128 -83 23 7
205 113 205 119 0 6 -47 29 -58 28 -4 0 -1 -3 6 -6z"/>
<path d="M2376 704 c-3 -9 -6 -39 -6 -68 0 -38 -5 -57 -17 -68 -20 -18 -257
-155 -319 -185 -40 -19 -41 -19 -77 0 -60 31 -63 14 -5 -24 l55 -35 54 37 c30
21 57 38 61 39 3 0 56 29 117 65 60 36 114 65 119 65 23 0 34 34 35 110 2 77
-4 98 -17 64z"/>
<path d="M587 653 c-4 -3 -7 -33 -7 -65 0 -42 4 -58 13 -58 8 0 33 -13 55 -30
23 -16 47 -30 53 -30 6 0 34 -16 63 -35 29 -19 56 -35 60 -35 4 0 26 -12 49
-27 23 -16 59 -37 79 -47 l37 -19 56 38 c30 21 55 42 55 47 0 12 -6 10 -50
-12 -22 -11 -46 -20 -54 -20 -8 0 -16 -6 -19 -12 -3 -10 -9 -9 -23 3 -20 16
-66 43 -169 100 -33 18 -85 49 -115 68 -51 34 -55 40 -60 83 -6 49 -12 63 -23
51z"/>
<path d="M1867 388 c-4 -12 -7 -44 -7 -69 0 -58 -6 -63 -185 -167 -191 -110
-187 -109 -244 -73 -25 16 -69 42 -96 58 -214 121 -215 121 -215 190 0 17 -4
35 -10 38 -6 4 -10 -18 -10 -58 l0 -64 48 -27 c95 -55 127 -75 140 -86 6 -6
12 -8 12 -4 0 4 8 0 18 -8 25 -21 171 -98 187 -98 7 0 15 4 17 8 3 7 27 22
128 80 19 11 64 37 100 57 36 21 82 48 102 59 l38 21 0 70 c0 76 -13 114 -23
73z"/>
</g>
</svg>
